<svg xmlns="http://www.w3.org/2000/svg" xmlns:xlink="http://www.w3.org/1999/xlink" width="1024" zoomAndPan="magnify" viewBox="0 0 768 767.999994" height="1024" preserveAspectRatio="xMidYMid meet" version="1.0"><defs><clipPath id="4875ce5fb0"><path d="M 23 46 L 750 46 L 750 720.164062 L 23 720.164062 Z M 23 46 " clip-rule="nonzero"/></clipPath></defs><rect x="-76.8" width="921.6" fill="#00000000" y="-76.799999" height="921.599993" fill-opacity="1"/><rect x="-76.8" width="921.6" fill="#00000000" y="-76.799999" height="921.599993" fill-opacity="1"/><g clip-path="url(#4875ce5fb0)"><path fill="#ca9fcf" d="M 227.753906 720.324219 L 566.71875 720.324219 C 605.808594 720.324219 643.554688 706.035156 672.847656 680.144531 L 707.855469 649.210938 C 767.339844 596.644531 762.363281 502.359375 697.671875 456.351562 C 645.605469 419.320312 630.460938 348.628906 662.785156 293.503906 L 666.4375 287.277344 C 695.652344 237.453125 688.847656 174.371094 649.667969 131.933594 L 602.425781 80.753906 C 555.714844 30.152344 473.949219 36.746094 435.945312 94.179688 C 407.050781 137.851562 350.632812 153.921875 303.074219 132.027344 L 282.417969 122.515625 C 223.085938 95.203125 152.707031 115.152344 116.519531 169.542969 L 93.320312 204.414062 C 70.367188 238.910156 67.558594 283.039062 85.949219 320.171875 C 107.09375 362.859375 99.992188 414.136719 68.046875 449.46875 L 58.738281 459.765625 C 0.59375 524.070312 16.414062 625.617188 91.363281 669.175781 L 137.53125 696.007812 C 164.933594 711.933594 196.0625 720.324219 227.753906 720.324219 Z M 227.753906 720.324219 " fill-opacity="1" fill-rule="nonzero"/></g><path fill="#611c69" d="M 729.285156 621.226562 C 729.855469 664.714844 700.265625 701.429688 685.234375 714.289062 L 662.203125 714.289062 C 679.324219 656.269531 707.632812 627.417969 723.496094 617.816406 C 726.136719 616.214844 729.246094 618.136719 729.285156 621.226562 Z M 729.285156 621.226562 " fill-opacity="1" fill-rule="nonzero"/><path fill="#ffffff" d="M 731.71875 478.546875 C 755.3125 567.464844 695.835938 672.777344 670.261719 711.980469 L 618.4375 711.980469 C 640.699219 544.207031 678.019531 503.433594 725.199219 475.882812 C 727.734375 474.402344 730.964844 475.707031 731.71875 478.546875 Z M 731.71875 478.546875 " fill-opacity="1" fill-rule="nonzero"/><path fill="#611c69" d="M 726.359375 477.875 C 727.605469 477.148438 729.136719 477.800781 729.492188 479.140625 C 741.117188 522.945312 732.308594 570.976562 717.261719 613.128906 C 702.492188 654.5 681.808594 689.933594 669.015625 709.671875 L 621.070312 709.671875 C 632.148438 627.417969 646.875 576.316406 664.515625 542.417969 C 682.28125 508.28125 703.050781 491.488281 726.359375 477.875 Z M 733.945312 477.953125 C 732.792969 473.613281 727.859375 471.65625 724.039062 473.886719 C 700.167969 487.828125 678.6875 505.199219 660.433594 540.28125 C 642.238281 575.242188 627.300781 627.691406 616.15625 711.675781 L 615.808594 714.289062 L 671.507812 714.289062 L 672.191406 713.242188 C 685.035156 693.554688 706.398438 657.257812 721.597656 614.6875 C 736.785156 572.152344 745.914062 523.066406 733.945312 477.953125 Z M 733.945312 477.953125 " fill-opacity="1" fill-rule="evenodd"/><path fill="#611c69" d="M 648.160156 533.25 C 668.539062 607.765625 645.210938 685.203125 629.957031 714.289062 L 591.953125 714.289062 C 583.402344 623.472656 618.148438 557.433594 640.992188 531.472656 C 643.246094 528.910156 647.257812 529.957031 648.160156 533.25 Z M 648.160156 533.25 " fill-opacity="1" fill-rule="nonzero"/><path fill="#611c69" d="M 699.457031 541.820312 L 711.855469 506.90625 L 716.191406 508.457031 L 687.796875 588.417969 L 706.453125 582.804688 L 707.777344 587.226562 L 685.878906 593.816406 L 660.054688 666.539062 L 683.296875 657.875 L 684.902344 662.203125 L 658.035156 672.21875 L 643.640625 712.753906 L 639.300781 711.207031 L 668.539062 628.875 L 657.726562 598.488281 L 662.066406 596.9375 L 670.980469 621.996094 L 696.84375 549.171875 L 688.785156 522.195312 L 693.199219 520.871094 Z M 699.457031 541.820312 " fill-opacity="1" fill-rule="evenodd"/><path fill="#ffffff" d="M 628.722656 592.753906 L 634.597656 560.363281 L 639.128906 561.191406 L 627.203125 626.933594 L 642.703125 618.753906 L 644.847656 622.839844 L 626.15625 632.703125 L 615.929688 689.089844 L 628.742188 679 L 631.585938 682.632812 L 614.6875 695.941406 L 611.492188 713.546875 L 606.960938 712.722656 L 615.152344 667.558594 L 601.640625 649.902344 L 605.292969 647.09375 L 616.265625 661.425781 L 627.691406 598.433594 L 616.75 586.582031 L 620.128906 583.449219 Z M 628.722656 592.753906 " fill-opacity="1" fill-rule="evenodd"/><path fill="#ffffff" d="M 222.121094 168.769531 L 230.976562 170.917969 C 232.554688 171.300781 232.714844 173.480469 231.210938 174.085938 L 222.953125 177.417969 C 222.457031 177.621094 222.085938 178.050781 221.957031 178.574219 L 219.664062 188.042969 C 219.292969 189.566406 217.214844 189.785156 216.535156 188.371094 L 212.265625 179.5 C 212.058594 179.066406 211.675781 178.746094 211.21875 178.613281 L 200.804688 175.675781 C 199.261719 175.238281 199.160156 173.085938 200.660156 172.507812 L 210.132812 168.882812 C 210.59375 168.703125 210.953125 168.332031 211.117188 167.867188 L 214.703125 157.433594 C 215.230469 155.894531 217.417969 155.941406 217.882812 157.496094 L 220.914062 167.625 C 221.082031 168.195312 221.542969 168.628906 222.121094 168.769531 Z M 222.121094 168.769531 " fill-opacity="1" fill-rule="nonzero"/><path fill="#ffffff" d="M 151.304688 256.179688 L 153.589844 258.035156 C 154.851562 259.058594 154.058594 261.09375 152.4375 260.996094 L 149.585938 260.824219 C 149.046875 260.792969 148.527344 261.019531 148.1875 261.4375 L 145.9375 264.207031 C 144.949219 265.425781 142.980469 264.734375 142.972656 263.164062 L 142.957031 259.488281 C 142.957031 259.011719 142.746094 258.554688 142.386719 258.242188 L 139.296875 255.53125 C 138.085938 254.472656 138.925781 252.484375 140.527344 252.609375 L 144.210938 252.902344 C 144.703125 252.9375 145.1875 252.757812 145.535156 252.40625 L 148.449219 249.433594 C 149.585938 248.273438 151.539062 249.253906 151.289062 250.859375 L 150.707031 254.625 C 150.617188 255.214844 150.84375 255.804688 151.304688 256.179688 Z M 151.304688 256.179688 " fill-opacity="1" fill-rule="nonzero"/><path fill="#611c69" d="M 704.121094 391.648438 L 697.484375 400.652344 C 697.082031 401.199219 696.421875 401.464844 695.777344 401.335938 L 687.578125 399.707031 C 685.8125 399.359375 684.75 401.707031 686.109375 402.945312 L 692.554688 408.8125 C 693.023438 409.238281 693.246094 409.898438 693.140625 410.546875 L 691.523438 420.21875 C 691.21875 422.035156 693.332031 423.164062 694.527344 421.820312 L 701.148438 414.386719 C 701.535156 413.949219 702.101562 413.738281 702.660156 413.820312 L 710.324219 414.925781 C 712.046875 415.175781 713.023438 412.894531 711.710938 411.683594 L 706.015625 406.414062 C 705.558594 405.992188 705.339844 405.347656 705.4375 404.710938 L 707.234375 393.09375 C 707.527344 391.191406 705.238281 390.128906 704.121094 391.648438 Z M 704.121094 391.648438 " fill-opacity="1" fill-rule="nonzero"/><path fill="#ffffff" d="M 303.042969 153.230469 C 303.042969 139.902344 313.847656 129.097656 327.175781 129.097656 L 601.730469 129.097656 C 615.058594 129.097656 625.863281 139.902344 625.863281 153.230469 L 625.863281 690.078125 C 625.863281 703.40625 615.058594 714.210938 601.730469 714.210938 L 327.175781 714.210938 C 313.847656 714.210938 303.042969 703.40625 303.042969 690.078125 Z M 303.042969 153.230469 " fill-opacity="1" fill-rule="nonzero"/><path fill="#611c69" d="M 301.03125 153.230469 C 301.03125 138.792969 312.738281 127.085938 327.175781 127.085938 L 601.730469 127.085938 C 616.167969 127.085938 627.875 138.792969 627.875 153.230469 L 627.875 690.078125 C 627.875 704.515625 616.167969 716.222656 601.730469 716.222656 L 327.175781 716.222656 C 312.738281 716.222656 301.03125 704.515625 301.03125 690.078125 Z M 327.175781 131.109375 C 314.957031 131.109375 305.054688 141.011719 305.054688 153.230469 L 305.054688 690.078125 C 305.054688 702.292969 314.957031 712.199219 327.175781 712.199219 L 601.730469 712.199219 C 613.949219 712.199219 623.851562 702.292969 623.851562 690.078125 L 623.851562 153.230469 C 623.851562 141.011719 613.949219 131.109375 601.730469 131.109375 Z M 327.175781 131.109375 " fill-opacity="1" fill-rule="evenodd"/><path fill="#ca9fcf" d="M 558.449219 344.25 C 558.449219 396.449219 516.132812 438.769531 463.929688 438.769531 C 411.726562 438.769531 369.410156 396.449219 369.410156 344.25 C 369.410156 292.046875 411.726562 249.726562 463.929688 249.726562 C 516.132812 249.726562 558.449219 292.046875 558.449219 344.25 Z M 558.449219 344.25 " fill-opacity="1" fill-rule="nonzero"/><path fill="#611c69" d="M 400.265625 148.714844 L 389.800781 129.097656 L 539.105469 129.097656 L 526.804688 149.597656 C 523.171875 155.652344 516.625 159.359375 509.5625 159.359375 L 418.007812 159.359375 C 410.582031 159.359375 403.757812 155.265625 400.265625 148.714844 Z M 400.265625 148.714844 " fill-opacity="1" fill-rule="nonzero"/><path fill="#611c69" d="M 621.902344 141.203125 L 304.941406 141.203125 C 315.433594 130.710938 325.453125 128.761719 329.152344 129.097656 L 597.691406 129.097656 C 610.605469 129.097656 619.214844 137.167969 621.902344 141.203125 Z M 621.902344 141.203125 " fill-opacity="1" fill-rule="nonzero"/><path fill="#611c69" d="M 621.660156 702.738281 L 307.066406 702.738281 C 317.96875 713.398438 324.269531 715.378906 328.113281 715.039062 L 600.613281 715.039062 C 614.03125 715.039062 618.863281 706.839844 621.660156 702.738281 Z M 621.660156 702.738281 " fill-opacity="1" fill-rule="nonzero"/><path fill="#611c69" d="M 349.296875 205.484375 C 349.296875 203.261719 351.097656 201.460938 353.320312 201.460938 L 460.417969 201.460938 C 462.640625 201.460938 464.441406 203.261719 464.441406 205.484375 L 464.441406 209.773438 C 464.441406 211.996094 462.640625 213.796875 460.417969 213.796875 L 353.320312 213.796875 C 351.097656 213.796875 349.296875 211.996094 349.296875 209.773438 Z M 349.296875 205.484375 " fill-opacity="1" fill-rule="nonzero"/><path fill="#611c69" d="M 349.296875 476.980469 C 349.296875 474.757812 351.097656 472.957031 353.320312 472.957031 L 460.417969 472.957031 C 462.640625 472.957031 464.441406 474.757812 464.441406 476.980469 L 464.441406 481.273438 C 464.441406 483.492188 462.640625 485.292969 460.417969 485.292969 L 353.320312 485.292969 C 351.097656 485.292969 349.296875 483.492188 349.296875 481.273438 Z M 349.296875 476.980469 " fill-opacity="1" fill-rule="nonzero"/><path fill="#611c69" d="M 349.296875 583.566406 C 349.296875 581.347656 351.097656 579.546875 353.320312 579.546875 L 417.671875 579.546875 C 419.894531 579.546875 421.695312 581.347656 421.695312 583.566406 L 421.695312 587.589844 C 421.695312 589.8125 419.894531 591.613281 417.671875 591.613281 L 353.320312 591.613281 C 351.097656 591.613281 349.296875 589.8125 349.296875 587.589844 Z M 349.296875 583.566406 " fill-opacity="1" fill-rule="nonzero"/><path fill="#ca9fcf" d="M 349.296875 507.144531 C 349.296875 504.925781 351.097656 503.125 353.320312 503.125 L 568.503906 503.125 C 570.726562 503.125 572.527344 504.925781 572.527344 507.144531 L 572.527344 547.367188 C 572.527344 549.589844 570.726562 551.390625 568.503906 551.390625 L 353.320312 551.390625 C 351.097656 551.390625 349.296875 549.589844 349.296875 547.367188 Z M 349.296875 507.144531 " fill-opacity="1" fill-rule="nonzero"/><path fill="#ca9fcf" d="M 349.296875 611.722656 C 349.296875 609.503906 351.097656 607.703125 353.320312 607.703125 L 568.503906 607.703125 C 570.726562 607.703125 572.527344 609.503906 572.527344 611.722656 L 572.527344 651.945312 C 572.527344 654.167969 570.726562 655.96875 568.503906 655.96875 L 353.320312 655.96875 C 351.097656 655.96875 349.296875 654.167969 349.296875 651.945312 Z M 349.296875 611.722656 " fill-opacity="1" fill-rule="nonzero"/><path fill="#611c69" d="M 599.175781 157.847656 L 603.199219 157.847656 L 603.199219 174.296875 L 599.175781 174.296875 Z M 599.175781 157.847656 " fill-opacity="1" fill-rule="evenodd"/><path fill="#611c69" d="M 588.894531 159.902344 L 592.917969 159.902344 L 592.917969 174.296875 L 588.894531 174.296875 Z M 588.894531 159.902344 " fill-opacity="1" fill-rule="evenodd"/><path fill="#611c69" d="M 578.613281 164.015625 L 582.636719 164.015625 L 582.636719 174.296875 L 578.613281 174.296875 Z M 578.613281 164.015625 " fill-opacity="1" fill-rule="evenodd"/><path fill="#611c69" d="M 568.332031 168.128906 L 572.355469 168.128906 L 572.355469 174.296875 L 568.332031 174.296875 Z M 568.332031 168.128906 " fill-opacity="1" fill-rule="evenodd"/><path fill="#ffffff" d="M 464.835938 345.386719 C 438.230469 345.386719 416.3125 365.742188 413.367188 391.941406 C 412.996094 395.253906 415.730469 397.964844 419.0625 397.964844 L 510.605469 397.964844 C 513.941406 397.964844 516.675781 395.253906 516.304688 391.941406 C 513.359375 365.742188 491.441406 345.386719 464.835938 345.386719 Z M 464.835938 345.386719 " fill-opacity="1" fill-rule="nonzero"/><path fill="#ffffff" d="M 490.347656 314.460938 C 490.347656 328.125 479.273438 339.203125 465.605469 339.203125 C 451.941406 339.203125 440.863281 328.125 440.863281 314.460938 C 440.863281 300.792969 451.941406 289.714844 465.605469 289.714844 C 479.273438 289.714844 490.347656 300.792969 490.347656 314.460938 Z M 490.347656 314.460938 " fill-opacity="1" fill-rule="nonzero"/><path fill="#ffffff" d="M 739.449219 285.925781 C 739.449219 323.691406 708.835938 354.304688 671.070312 354.304688 C 633.308594 354.304688 602.695312 323.691406 602.695312 285.925781 C 602.695312 248.164062 633.308594 217.550781 671.070312 217.550781 C 708.835938 217.550781 739.449219 248.164062 739.449219 285.925781 Z M 739.449219 285.925781 " fill-opacity="1" fill-rule="nonzero"/><path fill="#611c69" d="M 671.070312 219.175781 C 634.207031 219.175781 604.320312 249.0625 604.320312 285.925781 C 604.320312 322.789062 634.207031 352.675781 671.070312 352.675781 C 707.933594 352.675781 737.820312 322.789062 737.820312 285.925781 C 737.820312 249.0625 707.933594 219.175781 671.070312 219.175781 Z M 601.066406 285.925781 C 601.066406 247.265625 632.40625 215.921875 671.070312 215.921875 C 709.734375 215.921875 741.074219 247.265625 741.074219 285.925781 C 741.074219 324.589844 709.734375 355.929688 671.070312 355.929688 C 632.40625 355.929688 601.066406 324.589844 601.066406 285.925781 Z M 601.066406 285.925781 " fill-opacity="1" fill-rule="evenodd"/><path fill="#611c69" d="M 671.878906 243.597656 C 658.84375 243.597656 648.273438 254.339844 648.273438 267.59375 L 648.273438 284.023438 C 648.273438 285.972656 649.855469 287.554688 651.804688 287.554688 C 653.753906 287.554688 655.332031 285.972656 655.332031 284.023438 L 655.332031 267.144531 C 655.332031 257.855469 662.742188 250.324219 671.878906 250.324219 C 681.015625 250.324219 688.425781 257.855469 688.425781 267.144531 L 688.425781 283.144531 C 688.425781 285.09375 690.007812 286.671875 691.957031 286.671875 C 693.90625 286.671875 695.484375 285.09375 695.484375 283.144531 L 695.484375 267.59375 C 695.484375 254.339844 684.917969 243.597656 671.878906 243.597656 Z M 671.878906 243.597656 " fill-opacity="1" fill-rule="evenodd"/><path fill="#ca9fcf" d="M 641.761719 284.296875 C 641.761719 281.601562 643.949219 279.414062 646.644531 279.414062 L 697.113281 279.414062 C 699.808594 279.414062 701.996094 281.601562 701.996094 284.296875 L 701.996094 321.742188 C 701.996094 324.441406 699.808594 326.625 697.113281 326.625 L 646.644531 326.625 C 643.949219 326.625 641.761719 324.441406 641.761719 321.742188 Z M 641.761719 284.296875 " fill-opacity="1" fill-rule="nonzero"/><path fill="#ffffff" d="M 675.71875 304.972656 C 677.113281 303.851562 678.007812 302.128906 678.007812 300.195312 C 678.007812 296.8125 675.261719 294.066406 671.878906 294.066406 C 668.492188 294.066406 665.746094 296.8125 665.746094 300.195312 C 665.746094 302.300781 666.808594 304.15625 668.421875 305.261719 L 667.054688 311.003906 C 666.851562 311.863281 667.5 312.683594 668.378906 312.683594 L 675.828125 312.683594 C 676.707031 312.683594 677.355469 311.863281 677.152344 311.003906 Z M 675.71875 304.972656 " fill-opacity="1" fill-rule="evenodd"/><path fill="#ffffff" d="M 258.167969 389.289062 L 264.746094 413.1875 C 268.035156 425.140625 258.167969 439.261719 230.757812 439.261719 C 208.832031 439.261719 205.539062 418.984375 206.636719 408.84375 L 212.121094 381.683594 C 206.636719 376.25 202.25 372.992188 202.25 346.917969 C 202.25 314.328125 219.792969 302.375 240.628906 302.375 C 261.457031 302.375 279 319.738281 279 351.265625 C 279.003906 378.421875 264.382812 387.117188 258.167969 389.289062 Z M 258.167969 389.289062 " fill-opacity="1" fill-rule="nonzero"/><path fill="#611c69" d="M 266.195312 316.214844 C 272.839844 324.085938 277.128906 335.84375 277.128906 351.265625 C 277.128906 364.488281 273.578125 373.035156 269.425781 378.507812 C 265.253906 384.003906 260.378906 386.527344 257.550781 387.515625 L 255.898438 388.09375 L 262.941406 413.6875 C 264.394531 418.957031 262.980469 424.753906 258 429.320312 C 252.976562 433.925781 244.171875 437.382812 230.757812 437.382812 C 220.507812 437.382812 214.820312 432.714844 211.707031 426.960938 C 208.535156 421.089844 207.984375 413.949219 208.488281 409.128906 L 214.15625 381.0625 L 213.433594 380.347656 C 213.222656 380.140625 213.019531 379.9375 212.816406 379.734375 C 210.335938 377.296875 208.375 375.367188 206.882812 371.378906 C 205.222656 366.953125 204.125 359.898438 204.125 346.917969 C 204.125 330.953125 208.414062 320.355469 214.953125 313.75 C 221.496094 307.140625 230.554688 304.257812 240.625 304.257812 C 250.492188 304.257812 259.5625 308.355469 266.195312 316.214844 Z M 269.054688 313.785156 C 261.707031 305.082031 251.589844 300.5 240.625 300.5 C 229.863281 300.5 219.734375 303.589844 212.296875 311.101562 C 204.859375 318.617188 200.378906 330.292969 200.378906 346.917969 C 200.378906 360.011719 201.472656 367.621094 203.375 372.703125 C 205.152344 377.433594 207.609375 379.882812 210.082031 382.308594 L 204.785156 408.554688 L 204.777344 408.640625 C 204.199219 413.960938 204.757812 421.980469 208.417969 428.75 C 212.160156 435.667969 219.078125 441.140625 230.757812 441.140625 C 244.75 441.140625 254.585938 437.539062 260.527344 432.09375 C 266.511719 426.609375 268.390625 419.371094 266.550781 412.6875 L 260.421875 390.417969 C 263.792969 388.945312 268.40625 386.054688 272.402344 380.785156 C 277.113281 374.578125 280.871094 365.199219 280.871094 351.265625 C 280.871094 335.160156 276.386719 322.476562 269.054688 313.785156 Z M 269.054688 313.785156 " fill-opacity="1" fill-rule="evenodd"/><path fill="#611c69" d="M 310.191406 365.464844 C 326.507812 382.476562 324.316406 424.355469 321.8125 437.113281 C 291.136719 414.363281 271.972656 409.285156 264.460938 410.347656 L 257.601562 387.789062 C 269.410156 384.601562 276.921875 373.96875 277.996094 349.515625 C 278.855469 329.949219 269.050781 316.554688 264.042969 312.300781 C 246.871094 311.238281 238.285156 332.5 232.917969 341.007812 C 228.625 347.8125 225.40625 346.679688 224.332031 345.261719 C 218.964844 332.5 209.308594 331.4375 207.160156 345.261719 C 205.445312 356.320312 213.601562 361.917969 217.894531 363.335938 L 207.105469 410.347656 C 183.097656 411.6875 155.085938 425.070312 147.082031 430.421875 C 143.863281 396.398438 174.964844 370.777344 183.546875 349.515625 C 192.136719 328.25 180.328125 317.617188 188.914062 303.796875 C 195.28125 293.550781 207.160156 292.101562 214.671875 289.972656 C 222.1875 287.847656 226.480469 279.339844 235.066406 275.089844 C 250.089844 269.773438 264.398438 282.886719 268.335938 292.101562 C 270.839844 291.746094 277.996094 292.738281 286.582031 299.542969 C 311.265625 316.554688 289.800781 344.199219 310.191406 365.464844 Z M 310.191406 365.464844 " fill-opacity="1" fill-rule="nonzero"/><path fill="#611c69" d="M 236.359375 387.929688 C 249.152344 390.925781 256.613281 389.804688 258.746094 388.867188 L 261.945312 399.160156 C 248.300781 400.660156 239.203125 392.296875 236.359375 387.929688 Z M 236.359375 387.929688 " fill-opacity="1" fill-rule="nonzero"/><path fill="#ffffff" d="M 233.492188 429.421875 C 255.019531 429.421875 265.125 416.160156 267.484375 409.527344 C 308.558594 409.527344 342.550781 437.945312 358.128906 457.839844 C 373.710938 477.734375 431.78125 582.882812 417.617188 625.511719 C 406.285156 659.613281 378.90625 664.824219 363.796875 662.453125 L 366.300781 707.660156 C 366.480469 710.890625 363.914062 713.609375 360.691406 713.609375 L 152.761719 713.609375 C 131.042969 715.027344 83.644531 715.597656 67.78125 706.503906 C 47.953125 695.136719 29.539062 636.878906 67.78125 521.78125 C 98.375 429.707031 170.230469 408.582031 202.332031 409.527344 C 203.75 416.160156 211.964844 429.421875 233.492188 429.421875 Z M 233.492188 429.421875 " fill-opacity="1" fill-rule="nonzero"/><path fill="#611c69" d="M 66.003906 521.1875 C 96.894531 428.214844 169.582031 406.683594 202.390625 407.648438 L 203.855469 407.695312 L 204.164062 409.132812 C 205.410156 414.957031 212.90625 427.542969 233.496094 427.542969 C 254.144531 427.542969 263.597656 414.867188 265.722656 408.894531 L 266.167969 407.648438 L 267.484375 407.648438 C 309.378906 407.648438 343.855469 436.570312 359.605469 456.679688 C 367.53125 466.800781 386.019531 498.226562 400.746094 532.40625 C 408.117188 549.511719 414.582031 567.390625 418.316406 583.707031 C 422.03125 599.953125 423.101562 614.941406 419.394531 626.105469 C 413.582031 643.597656 403.589844 653.824219 392.984375 659.328125 C 383.414062 664.292969 373.449219 665.367188 365.789062 664.601562 L 368.171875 707.554688 C 368.410156 711.863281 364.992188 715.488281 360.695312 715.488281 L 152.824219 715.488281 C 141.90625 716.199219 124.585938 716.695312 107.984375 715.875 C 99.667969 715.464844 91.496094 714.722656 84.382812 713.5 C 77.3125 712.289062 71.113281 710.574219 66.851562 708.132812 C 61.429688 705.023438 56.339844 698.867188 52.328125 689.792969 C 48.304688 680.691406 45.300781 668.527344 44.140625 653.183594 C 41.8125 622.492188 46.832031 578.894531 66.003906 521.1875 Z M 200.886719 411.378906 C 168.828125 411.09375 99.414062 432.519531 69.558594 522.375 C 50.492188 579.761719 45.59375 622.84375 47.871094 652.898438 C 49.011719 667.925781 51.941406 679.652344 55.75 688.269531 C 59.574219 696.914062 64.21875 702.296875 68.710938 704.871094 C 72.382812 706.980469 78.054688 708.605469 85.015625 709.796875 C 91.925781 710.984375 99.9375 711.71875 108.167969 712.125 C 124.628906 712.9375 141.835938 712.441406 152.640625 711.734375 L 152.703125 711.730469 L 360.695312 711.730469 C 362.84375 711.730469 364.550781 709.917969 364.429688 707.765625 L 361.800781 660.242188 L 364.085938 660.601562 C 371.304688 661.730469 381.515625 661.050781 391.261719 655.992188 C 400.960938 650.957031 410.324219 641.523438 415.84375 624.917969 C 419.214844 614.765625 418.339844 600.625 414.664062 584.546875 C 411.003906 568.535156 404.632812 550.886719 397.3125 533.894531 C 382.648438 499.871094 364.3125 468.769531 356.660156 459 C 341.410156 439.53125 308.441406 411.988281 268.746094 411.414062 C 265.4375 418.929688 254.671875 431.300781 233.496094 431.300781 C 212.421875 431.300781 203.253906 419.039062 200.886719 411.378906 Z M 200.886719 411.378906 " fill-opacity="1" fill-rule="evenodd"/><path fill="#611c69" d="M 130.351562 713.695312 C 96.207031 671.941406 60.105469 657.046875 46.324219 654.8125 C 46.324219 668.195312 52.992188 693.621094 64.996094 705.664062 C 74.597656 715.296875 112.566406 715.03125 130.351562 713.695312 Z M 130.351562 713.695312 " fill-opacity="1" fill-rule="nonzero"/><path fill="#611c69" d="M 394.445312 657.492188 C 416.855469 648.925781 420.675781 618.238281 419.789062 603.964844 C 399.515625 613.601562 372.214844 646.339844 361.101562 661.507812 C 362.878906 663.734375 372.039062 666.054688 394.445312 657.492188 Z M 394.445312 657.492188 " fill-opacity="1" fill-rule="nonzero"/><path fill="#611c69" d="M 230.664062 560.148438 C 220.75 564.410156 147.097656 598.988281 113.105469 615.566406 C 117.355469 608.460938 134.351562 597.089844 138.601562 592.828125 C 142.851562 588.566406 158.429688 538.835938 158.429688 545.941406 C 158.429688 553.042969 149.929688 585.726562 154.179688 585.726562 C 158.429688 585.726562 217.917969 560.148438 230.664062 560.148438 Z M 230.664062 560.148438 " fill-opacity="1" fill-rule="nonzero"/><path fill="#611c69" d="M 260.40625 601.355469 C 200.351562 682.066406 151.347656 710.765625 134.351562 715.03125 L 164.09375 715.03125 C 215.082031 675.242188 249.546875 622.671875 260.40625 601.355469 Z M 260.40625 601.355469 " fill-opacity="1" fill-rule="nonzero"/><path fill="#611c69" d="M 334.054688 587.148438 C 336.320312 614.429688 355.769531 648.71875 365.214844 662.457031 L 365.214844 675.242188 C 343.683594 651.371094 335.46875 606.566406 334.054688 587.148438 Z M 334.054688 587.148438 " fill-opacity="1" fill-rule="nonzero"/><path fill="#611c69" d="M 360.964844 548.78125 C 368.894531 553.328125 383.152344 563.9375 389.292969 568.675781 L 366.628906 541.675781 C 365.5 546.222656 362.382812 548.308594 360.964844 548.78125 Z M 360.964844 548.78125 " fill-opacity="1" fill-rule="nonzero"/><path fill="#ffffff" d="M 277.238281 496.355469 L 266.324219 603.136719 C 266.195312 604.378906 267.289062 605.398438 268.515625 605.179688 L 319.984375 595.910156 C 320.773438 595.765625 321.386719 595.136719 321.503906 594.335938 L 336.542969 492.839844 C 336.71875 491.648438 335.753906 490.601562 334.558594 490.6875 L 278.96875 494.671875 C 278.0625 494.738281 277.332031 495.445312 277.238281 496.355469 Z M 277.238281 496.355469 " fill-opacity="1" fill-rule="nonzero"/><path fill="#611c69" d="M 334.425781 488.816406 C 336.816406 488.644531 338.75 490.738281 338.398438 493.113281 L 323.359375 594.613281 C 323.121094 596.207031 321.898438 597.472656 320.316406 597.757812 L 268.847656 607.023438 C 266.398438 607.46875 264.207031 605.429688 264.460938 602.945312 L 275.378906 496.160156 C 275.566406 494.347656 277.023438 492.929688 278.835938 492.796875 Z M 334.695312 492.5625 L 279.105469 496.546875 L 268.1875 603.328125 L 319.652344 594.058594 Z M 334.695312 492.5625 " fill-opacity="1" fill-rule="evenodd"/><path fill="#ffffff" d="M 351.050781 548.78125 L 334.054688 574.359375 C 311.390625 575.777344 307.144531 562.992188 311.390625 543.097656 C 314.792969 527.183594 327.445312 526.992188 332.636719 528.886719 L 335.46875 517.519531 C 351.050781 530.308594 351.050781 542.625 351.050781 548.78125 Z M 351.050781 548.78125 " fill-opacity="1" fill-rule="nonzero"/><path fill="#611c69" d="M 334.371094 514.191406 L 336.65625 516.066406 C 344.6875 522.660156 348.792969 529.210938 350.867188 535.003906 C 352.921875 540.757812 352.921875 545.640625 352.921875 548.75 L 352.921875 549.351562 L 335.097656 576.175781 L 334.171875 576.234375 C 322.546875 576.960938 314.929688 574.078125 311.035156 567.703125 C 307.269531 561.535156 307.421875 552.722656 309.5625 542.703125 C 311.375 534.214844 315.753906 529.648438 320.613281 527.585938 C 324.40625 525.972656 328.34375 525.949219 331.289062 526.566406 Z M 336.550781 520.929688 L 333.953125 531.363281 L 332 530.652344 C 329.777344 529.84375 325.8125 529.457031 322.074219 531.042969 C 318.460938 532.578125 314.808594 536.0625 313.222656 543.488281 C 311.113281 553.363281 311.269531 560.894531 314.230469 565.738281 C 316.980469 570.246094 322.574219 573.015625 333.015625 572.535156 L 349.175781 548.214844 C 349.171875 545.203125 349.0625 541.082031 347.339844 536.269531 C 345.710938 531.707031 342.589844 526.425781 336.550781 520.929688 Z M 336.550781 520.929688 " fill-opacity="1" fill-rule="evenodd"/><path fill="#ffffff" d="M 251.90625 545.941406 C 248.507812 555.035156 241.992188 561.097656 239.160156 562.992188 L 257.570312 591.410156 C 263.234375 585.726562 270.316406 585.726562 285.898438 578.621094 C 301.476562 571.515625 305.726562 545.941406 301.476562 531.730469 C 298.078125 520.363281 278.34375 528.886719 270.316406 534.570312 L 271.734375 518.941406 C 261.820312 523.203125 256.15625 534.570312 251.90625 545.941406 Z M 251.90625 545.941406 " fill-opacity="1" fill-rule="nonzero"/><path fill="#611c69" d="M 273.882812 515.976562 L 272.527344 530.933594 C 276.660156 528.515625 282.097656 526.070312 287.226562 524.921875 C 290.539062 524.183594 293.933594 523.9375 296.820312 524.773438 C 299.839844 525.648438 302.222656 527.6875 303.269531 531.191406 C 305.511719 538.683594 305.484375 548.996094 302.929688 558.335938 C 300.378906 567.652344 295.183594 576.449219 286.671875 580.332031 C 280.34375 583.21875 275.371094 584.957031 271.398438 586.34375 C 270.421875 586.683594 269.507812 587.003906 268.648438 587.316406 C 264.269531 588.898438 261.417969 590.207031 258.894531 592.738281 L 257.261719 594.378906 L 236.582031 562.457031 L 238.121094 561.429688 C 240.683594 559.710938 246.914062 553.945312 250.152344 545.28125 C 252.292969 539.550781 254.832031 533.707031 258.136719 528.734375 C 261.445312 523.757812 265.59375 519.539062 270.996094 517.214844 Z M 261.253906 530.816406 C 258.183594 535.4375 255.765625 540.960938 253.660156 546.597656 C 250.59375 554.796875 245.125 560.652344 241.683594 563.445312 L 257.953125 588.550781 C 260.664062 586.386719 263.703125 585.109375 267.382812 583.78125 C 268.28125 583.457031 269.21875 583.128906 270.210938 582.78125 C 274.179688 581.394531 278.964844 579.71875 285.121094 576.910156 C 292.191406 573.6875 296.910156 566.144531 299.316406 557.34375 C 301.71875 548.566406 301.691406 538.984375 299.683594 532.269531 C 299.03125 530.085938 297.675781 528.933594 295.785156 528.382812 C 293.765625 527.796875 291.085938 527.910156 288.039062 528.589844 C 281.96875 529.945312 275.253906 533.375 271.398438 536.105469 L 268.085938 538.449219 L 269.554688 522.222656 C 266.351562 524.277344 263.628906 527.242188 261.253906 530.816406 Z M 261.253906 530.816406 " fill-opacity="1" fill-rule="evenodd"/></svg>