<svg xmlns="http://www.w3.org/2000/svg" xmlns:xlink="http://www.w3.org/1999/xlink" width="1080" zoomAndPan="magnify" viewBox="0 0 810 809.999993" height="1080" preserveAspectRatio="xMidYMid meet" version="1.0"><defs><clipPath id="b059e593f7"><path d="M 24.257812 58.007812 L 791 58.007812 L 791 768.738281 L 24.257812 768.738281 Z M 24.257812 58.007812 " clip-rule="nonzero"/></clipPath></defs><rect x="-81" width="972" fill="#ffffff00" y="-80.999999" height="971.999992" fill-opacity="1"/><rect x="-81" width="972" fill="#ffffff00" y="-80.999999" height="971.999992" fill-opacity="1"/><rect x="-81" width="972" fill="#ffffff00" y="-80.999999" height="971.999992" fill-opacity="1"/><rect x="-81" width="972" fill="#ffffff00" y="-80.999999" height="971.999992" fill-opacity="1"/><g clip-path="url(#b059e593f7)"><path fill="#ffa78e" d="M 240.210938 768.910156 L 597.710938 768.910156 C 638.9375 768.910156 678.75 753.84375 709.644531 726.535156 L 746.566406 693.910156 C 809.304688 638.46875 804.054688 539.023438 735.824219 490.503906 C 680.910156 451.449219 664.9375 376.890625 699.03125 318.75 L 702.882812 312.179688 C 733.695312 259.628906 726.519531 193.101562 685.195312 148.339844 L 635.371094 94.363281 C 586.105469 40.996094 499.867188 47.953125 459.785156 108.527344 C 429.3125 154.582031 369.808594 171.53125 319.648438 148.4375 L 297.863281 138.410156 C 235.285156 109.601562 161.058594 130.644531 122.890625 188.011719 L 98.421875 224.785156 C 74.214844 261.171875 71.253906 307.710938 90.648438 346.871094 C 112.949219 391.894531 105.460938 445.980469 71.769531 483.246094 L 61.949219 494.101562 C 0.625 561.925781 17.3125 669.027344 96.359375 714.96875 L 145.050781 743.261719 C 173.953125 760.0625 206.785156 768.910156 240.210938 768.910156 Z M 240.210938 768.910156 " fill-opacity="1" fill-rule="nonzero"/></g><path fill="#e05d38" d="M 769.167969 664.394531 C 769.769531 710.257812 738.5625 748.984375 722.707031 762.546875 L 698.417969 762.546875 C 716.476562 701.351562 746.332031 670.921875 763.0625 660.792969 C 765.847656 659.109375 769.125 661.132812 769.167969 664.394531 Z M 769.167969 664.394531 " fill-opacity="1" fill-rule="nonzero"/><path fill="#ffffff" d="M 771.734375 513.914062 C 796.617188 607.695312 733.890625 718.765625 706.917969 760.113281 L 652.257812 760.113281 C 675.738281 583.164062 715.097656 540.160156 764.859375 511.097656 C 767.53125 509.542969 770.941406 510.917969 771.734375 513.914062 Z M 771.734375 513.914062 " fill-opacity="1" fill-rule="nonzero"/><path fill="#e05d38" d="M 766.082031 513.203125 C 767.394531 512.4375 769.011719 513.125 769.386719 514.539062 C 781.648438 560.738281 772.355469 611.398438 756.488281 655.855469 C 740.910156 699.488281 719.09375 736.859375 705.601562 757.675781 L 655.035156 757.675781 C 666.71875 670.925781 682.25 617.027344 700.855469 581.273438 C 719.59375 545.269531 741.5 527.558594 766.082031 513.203125 Z M 774.082031 513.285156 C 772.867188 508.710938 767.664062 506.640625 763.636719 508.996094 C 738.457031 523.699219 715.804688 542.023438 696.550781 579.023438 C 677.359375 615.894531 661.605469 671.210938 649.851562 759.792969 L 649.484375 762.546875 L 708.230469 762.546875 L 708.953125 761.441406 C 722.496094 740.679688 745.03125 702.398438 761.058594 657.496094 C 777.078125 612.632812 786.707031 560.867188 774.082031 513.285156 Z M 774.082031 513.285156 " fill-opacity="1" fill-rule="evenodd"/><path fill="#e05d38" d="M 683.605469 571.609375 C 705.101562 650.199219 680.496094 731.871094 664.40625 762.546875 L 624.324219 762.546875 C 615.308594 666.765625 651.953125 597.113281 676.046875 569.734375 C 678.421875 567.03125 682.65625 568.132812 683.605469 571.609375 Z M 683.605469 571.609375 " fill-opacity="1" fill-rule="nonzero"/><path fill="#e05d38" d="M 737.707031 580.640625 L 750.785156 543.824219 L 755.359375 545.457031 L 725.410156 629.792969 L 745.085938 623.871094 L 746.484375 628.535156 L 723.386719 635.484375 L 696.152344 712.1875 L 720.664062 703.046875 L 722.359375 707.613281 L 694.019531 718.171875 L 678.839844 760.929688 L 674.261719 759.292969 L 705.101562 672.460938 L 693.695312 640.410156 L 698.273438 638.773438 L 707.675781 665.207031 L 734.953125 588.398438 L 726.453125 559.949219 L 731.109375 558.546875 Z M 737.707031 580.640625 " fill-opacity="1" fill-rule="evenodd"/><path fill="#ffffff" d="M 663.105469 634.363281 L 669.300781 600.203125 L 674.082031 601.074219 L 661.503906 670.414062 L 677.851562 661.789062 L 680.113281 666.097656 L 660.398438 676.5 L 649.613281 735.96875 L 663.125 725.328125 L 666.125 729.15625 L 648.304688 743.195312 L 644.933594 761.765625 L 640.152344 760.890625 L 648.792969 713.261719 L 634.542969 694.640625 L 638.394531 691.675781 L 649.96875 706.792969 L 662.019531 640.355469 L 650.476562 627.855469 L 654.042969 624.546875 Z M 663.105469 634.363281 " fill-opacity="1" fill-rule="evenodd"/><path fill="#ffffff" d="M 234.269531 187.195312 L 243.609375 189.457031 C 245.273438 189.859375 245.441406 192.164062 243.855469 192.800781 L 235.144531 196.316406 C 234.621094 196.527344 234.230469 196.984375 234.09375 197.535156 L 231.675781 207.519531 C 231.285156 209.128906 229.09375 209.359375 228.375 207.867188 L 223.875 198.507812 C 223.65625 198.054688 223.25 197.710938 222.769531 197.578125 L 211.785156 194.480469 C 210.160156 194.015625 210.050781 191.742188 211.632812 191.136719 L 221.625 187.308594 C 222.109375 187.125 222.488281 186.734375 222.664062 186.238281 L 226.445312 175.234375 C 227 173.617188 229.308594 173.664062 229.796875 175.304688 L 232.996094 185.988281 C 233.171875 186.585938 233.660156 187.046875 234.269531 187.195312 Z M 234.269531 187.195312 " fill-opacity="1" fill-rule="nonzero"/><path fill="#ffffff" d="M 159.578125 279.382812 L 161.988281 281.339844 C 163.320312 282.417969 162.484375 284.566406 160.773438 284.464844 L 157.765625 284.28125 C 157.199219 284.246094 156.648438 284.488281 156.292969 284.929688 L 153.917969 287.851562 C 152.875 289.136719 150.800781 288.402344 150.792969 286.75 L 150.773438 282.875 C 150.773438 282.367188 150.550781 281.890625 150.171875 281.554688 L 146.914062 278.703125 C 145.636719 277.585938 146.523438 275.488281 148.210938 275.621094 L 152.097656 275.925781 C 152.617188 275.964844 153.128906 275.777344 153.492188 275.402344 L 156.566406 272.265625 C 157.765625 271.046875 159.828125 272.078125 159.5625 273.769531 L 158.949219 277.746094 C 158.855469 278.363281 159.09375 278.988281 159.578125 279.382812 Z M 159.578125 279.382812 " fill-opacity="1" fill-rule="nonzero"/><path fill="#e05d38" d="M 742.628906 422.261719 L 735.628906 431.757812 C 735.203125 432.335938 734.507812 432.617188 733.828125 432.480469 L 725.179688 430.761719 C 723.316406 430.390625 722.195312 432.871094 723.632812 434.175781 L 730.429688 440.359375 C 730.921875 440.8125 731.15625 441.511719 731.046875 442.195312 L 729.339844 452.390625 C 729.019531 454.3125 731.25 455.496094 732.507812 454.085938 L 739.492188 446.242188 C 739.898438 445.78125 740.496094 445.558594 741.085938 445.648438 L 749.171875 446.808594 C 750.988281 447.070312 752.015625 444.671875 750.632812 443.390625 L 744.625 437.832031 C 744.144531 437.386719 743.914062 436.707031 744.015625 436.039062 L 745.910156 423.785156 C 746.21875 421.78125 743.804688 420.660156 742.628906 422.261719 Z M 742.628906 422.261719 " fill-opacity="1" fill-rule="nonzero"/><path fill="#ffffff" d="M 319.617188 170.804688 C 319.617188 156.75 331.011719 145.351562 345.066406 145.351562 L 634.636719 145.351562 C 648.695312 145.351562 660.089844 156.75 660.089844 170.804688 L 660.089844 737.011719 C 660.089844 751.066406 648.695312 762.460938 634.636719 762.460938 L 345.066406 762.460938 C 331.011719 762.460938 319.617188 751.066406 319.617188 737.011719 Z M 319.617188 170.804688 " fill-opacity="1" fill-rule="nonzero"/><path fill="#e05d38" d="M 317.492188 170.804688 C 317.492188 155.574219 329.839844 143.230469 345.066406 143.230469 L 634.636719 143.230469 C 649.863281 143.230469 662.210938 155.574219 662.210938 170.804688 L 662.210938 737.007812 C 662.210938 752.238281 649.863281 764.582031 634.636719 764.582031 L 345.066406 764.582031 C 329.839844 764.582031 317.492188 752.238281 317.492188 737.007812 Z M 345.066406 147.472656 C 332.179688 147.472656 321.738281 157.917969 321.738281 170.804688 L 321.738281 737.007812 C 321.738281 749.894531 332.179688 760.34375 345.066406 760.34375 L 634.636719 760.34375 C 647.523438 760.34375 657.96875 749.894531 657.96875 737.007812 L 657.96875 170.804688 C 657.96875 157.917969 647.523438 147.472656 634.636719 147.472656 Z M 345.066406 147.472656 " fill-opacity="1" fill-rule="evenodd"/><path fill="#ffa78e" d="M 588.988281 372.269531 C 588.988281 427.324219 544.359375 471.960938 489.300781 471.960938 C 434.242188 471.960938 389.613281 427.324219 389.613281 372.269531 C 389.613281 317.210938 434.242188 272.578125 489.300781 272.578125 C 544.359375 272.578125 588.988281 317.210938 588.988281 372.269531 Z M 588.988281 372.269531 " fill-opacity="1" fill-rule="nonzero"/><path fill="#e05d38" d="M 422.15625 166.039062 L 411.117188 145.347656 L 568.585938 145.347656 L 555.613281 166.972656 C 551.78125 173.359375 544.878906 177.269531 537.429688 177.269531 L 440.867188 177.269531 C 433.035156 177.269531 425.839844 172.953125 422.15625 166.039062 Z M 422.15625 166.039062 " fill-opacity="1" fill-rule="nonzero"/><path fill="#e05d38" d="M 655.914062 158.117188 L 321.617188 158.117188 C 332.683594 147.050781 343.25 144.996094 347.152344 145.347656 L 630.378906 145.347656 C 643.996094 145.347656 653.078125 153.859375 655.914062 158.117188 Z M 655.914062 158.117188 " fill-opacity="1" fill-rule="nonzero"/><path fill="#e05d38" d="M 655.65625 750.359375 L 323.859375 750.359375 C 335.359375 761.605469 342.003906 763.695312 346.058594 763.335938 L 633.460938 763.335938 C 647.609375 763.335938 652.707031 754.6875 655.65625 750.359375 Z M 655.65625 750.359375 " fill-opacity="1" fill-rule="nonzero"/><path fill="#e05d38" d="M 368.398438 225.914062 C 368.398438 223.570312 370.296875 221.667969 372.640625 221.667969 L 485.597656 221.667969 C 487.941406 221.667969 489.839844 223.570312 489.839844 225.914062 L 489.839844 230.441406 C 489.839844 232.785156 487.941406 234.683594 485.597656 234.683594 L 372.640625 234.683594 C 370.296875 234.683594 368.398438 232.785156 368.398438 230.441406 Z M 368.398438 225.914062 " fill-opacity="1" fill-rule="nonzero"/><path fill="#e05d38" d="M 368.398438 512.257812 C 368.398438 509.917969 370.296875 508.015625 372.640625 508.015625 L 485.597656 508.015625 C 487.941406 508.015625 489.839844 509.917969 489.839844 512.257812 L 489.839844 516.789062 C 489.839844 519.128906 487.941406 521.027344 485.597656 521.027344 L 372.640625 521.027344 C 370.296875 521.027344 368.398438 519.128906 368.398438 516.789062 Z M 368.398438 512.257812 " fill-opacity="1" fill-rule="nonzero"/><path fill="#e05d38" d="M 368.398438 624.675781 C 368.398438 622.332031 370.296875 620.433594 372.640625 620.433594 L 440.511719 620.433594 C 442.859375 620.433594 444.757812 622.332031 444.757812 624.675781 L 444.757812 628.917969 C 444.757812 631.257812 442.859375 633.160156 440.511719 633.160156 L 372.640625 633.160156 C 370.296875 633.160156 368.398438 631.257812 368.398438 628.917969 Z M 368.398438 624.675781 " fill-opacity="1" fill-rule="nonzero"/><path fill="#ffa78e" d="M 368.398438 544.074219 C 368.398438 541.734375 370.296875 539.835938 372.640625 539.835938 L 599.59375 539.835938 C 601.9375 539.835938 603.835938 541.734375 603.835938 544.074219 L 603.835938 586.496094 C 603.835938 588.839844 601.9375 590.742188 599.59375 590.742188 L 372.640625 590.742188 C 370.296875 590.742188 368.398438 588.839844 368.398438 586.496094 Z M 368.398438 544.074219 " fill-opacity="1" fill-rule="nonzero"/><path fill="#ffa78e" d="M 368.398438 654.371094 C 368.398438 652.027344 370.296875 650.128906 372.640625 650.128906 L 599.59375 650.128906 C 601.9375 650.128906 603.835938 652.027344 603.835938 654.371094 L 603.835938 696.792969 C 603.835938 699.132812 601.9375 701.035156 599.59375 701.035156 L 372.640625 701.035156 C 370.296875 701.035156 368.398438 699.132812 368.398438 696.792969 Z M 368.398438 654.371094 " fill-opacity="1" fill-rule="nonzero"/><path fill="#e05d38" d="M 631.941406 175.675781 L 636.1875 175.675781 L 636.1875 193.023438 L 631.941406 193.023438 Z M 631.941406 175.675781 " fill-opacity="1" fill-rule="evenodd"/><path fill="#e05d38" d="M 621.101562 177.84375 L 625.34375 177.84375 L 625.34375 193.023438 L 621.101562 193.023438 Z M 621.101562 177.84375 " fill-opacity="1" fill-rule="evenodd"/><path fill="#e05d38" d="M 610.257812 182.179688 L 614.5 182.179688 L 614.5 193.023438 L 610.257812 193.023438 Z M 610.257812 182.179688 " fill-opacity="1" fill-rule="evenodd"/><path fill="#e05d38" d="M 599.414062 186.519531 L 603.65625 186.519531 L 603.65625 193.023438 L 599.414062 193.023438 Z M 599.414062 186.519531 " fill-opacity="1" fill-rule="evenodd"/><path fill="#ffffff" d="M 490.257812 373.46875 C 462.195312 373.46875 439.078125 394.933594 435.972656 422.570312 C 435.582031 426.0625 438.464844 428.925781 441.980469 428.925781 L 538.527344 428.925781 C 542.046875 428.925781 544.929688 426.0625 544.539062 422.570312 C 541.433594 394.933594 518.316406 373.46875 490.257812 373.46875 Z M 490.257812 373.46875 " fill-opacity="1" fill-rule="nonzero"/><path fill="#ffffff" d="M 517.164062 340.847656 C 517.164062 355.265625 505.484375 366.945312 491.066406 366.945312 C 476.65625 366.945312 464.972656 355.265625 464.972656 340.847656 C 464.972656 326.4375 476.65625 314.753906 491.066406 314.753906 C 505.484375 314.753906 517.164062 326.4375 517.164062 340.847656 Z M 517.164062 340.847656 " fill-opacity="1" fill-rule="nonzero"/><path fill="#ffffff" d="M 779.886719 310.757812 C 779.886719 350.585938 747.601562 382.871094 707.769531 382.871094 C 667.941406 382.871094 635.65625 350.585938 635.65625 310.757812 C 635.65625 270.925781 667.941406 238.640625 707.769531 238.640625 C 747.601562 238.640625 779.886719 270.925781 779.886719 310.757812 Z M 779.886719 310.757812 " fill-opacity="1" fill-rule="nonzero"/><path fill="#e05d38" d="M 707.769531 240.359375 C 668.890625 240.359375 637.367188 271.875 637.367188 310.757812 C 637.367188 349.636719 668.890625 381.152344 707.769531 381.152344 C 746.648438 381.152344 778.167969 349.636719 778.167969 310.757812 C 778.167969 271.875 746.648438 240.359375 707.769531 240.359375 Z M 633.9375 310.757812 C 633.9375 269.980469 666.992188 236.921875 707.769531 236.921875 C 748.546875 236.921875 781.601562 269.980469 781.601562 310.757812 C 781.601562 351.53125 748.546875 384.589844 707.769531 384.589844 C 666.992188 384.589844 633.9375 351.53125 633.9375 310.757812 Z M 633.9375 310.757812 " fill-opacity="1" fill-rule="evenodd"/><path fill="#e05d38" d="M 708.621094 266.113281 C 694.875 266.113281 683.726562 277.445312 683.726562 291.421875 L 683.726562 308.75 C 683.726562 310.808594 685.394531 312.472656 687.449219 312.472656 C 689.507812 312.472656 691.171875 310.808594 691.171875 308.75 L 691.171875 290.949219 C 691.171875 281.152344 698.984375 273.210938 708.621094 273.210938 C 718.257812 273.210938 726.074219 281.152344 726.074219 290.949219 L 726.074219 307.820312 C 726.074219 309.875 727.742188 311.542969 729.796875 311.542969 C 731.855469 311.542969 733.519531 309.875 733.519531 307.820312 L 733.519531 291.421875 C 733.519531 277.445312 722.375 266.113281 708.621094 266.113281 Z M 708.621094 266.113281 " fill-opacity="1" fill-rule="evenodd"/><path fill="#ffa78e" d="M 676.859375 309.039062 C 676.859375 306.191406 679.164062 303.890625 682.007812 303.890625 L 735.238281 303.890625 C 738.078125 303.890625 740.386719 306.191406 740.386719 309.039062 L 740.386719 348.53125 C 740.386719 351.375 738.078125 353.683594 735.238281 353.683594 L 682.007812 353.683594 C 679.164062 353.683594 676.859375 351.375 676.859375 348.53125 Z M 676.859375 309.039062 " fill-opacity="1" fill-rule="nonzero"/><path fill="#ffffff" d="M 712.671875 330.847656 C 714.144531 329.660156 715.085938 327.84375 715.085938 325.808594 C 715.085938 322.234375 712.191406 319.34375 708.621094 319.34375 C 705.050781 319.34375 702.152344 322.234375 702.152344 325.808594 C 702.152344 328.027344 703.273438 329.984375 704.976562 331.148438 L 703.535156 337.207031 C 703.320312 338.109375 704.003906 338.976562 704.929688 338.976562 L 712.789062 338.976562 C 713.714844 338.976562 714.398438 338.109375 714.183594 337.207031 Z M 712.671875 330.847656 " fill-opacity="1" fill-rule="evenodd"/><path fill="#ffffff" d="M 272.285156 419.769531 L 279.222656 444.980469 C 282.691406 457.582031 272.285156 472.480469 243.378906 472.480469 C 220.253906 472.480469 216.78125 451.089844 217.9375 440.394531 L 223.722656 411.753906 C 217.9375 406.023438 213.308594 402.585938 213.308594 375.085938 C 213.308594 340.710938 231.8125 328.105469 253.789062 328.105469 C 275.753906 328.105469 294.257812 346.417969 294.257812 379.667969 C 294.261719 408.3125 278.839844 417.480469 272.285156 419.769531 Z M 272.285156 419.769531 " fill-opacity="1" fill-rule="nonzero"/><path fill="#e05d38" d="M 280.753906 342.699219 C 287.761719 351 292.285156 363.40625 292.285156 379.667969 C 292.285156 393.613281 288.539062 402.632812 284.160156 408.402344 C 279.761719 414.195312 274.617188 416.855469 271.636719 417.898438 L 269.894531 418.511719 L 277.320312 445.507812 C 278.855469 451.0625 277.363281 457.179688 272.109375 461.988281 C 266.8125 466.851562 257.523438 470.496094 243.378906 470.496094 C 232.566406 470.496094 226.566406 465.574219 223.285156 459.5 C 219.9375 453.3125 219.359375 445.777344 219.890625 440.699219 L 225.867188 411.09375 L 225.105469 410.339844 C 224.882812 410.121094 224.667969 409.90625 224.453125 409.695312 C 221.839844 407.121094 219.769531 405.085938 218.195312 400.882812 C 216.445312 396.214844 215.289062 388.777344 215.289062 375.085938 C 215.289062 358.246094 219.8125 347.070312 226.707031 340.105469 C 233.609375 333.128906 243.164062 330.089844 253.785156 330.089844 C 264.191406 330.089844 273.757812 334.414062 280.753906 342.699219 Z M 283.769531 340.140625 C 276.019531 330.957031 265.347656 326.125 253.785156 326.125 C 242.433594 326.125 231.75 329.386719 223.90625 337.308594 C 216.0625 345.238281 211.335938 357.550781 211.335938 375.085938 C 211.335938 388.890625 212.492188 396.921875 214.496094 402.28125 C 216.371094 407.269531 218.964844 409.847656 221.570312 412.410156 L 215.984375 440.09375 L 215.976562 440.179688 C 215.367188 445.796875 215.957031 454.25 219.816406 461.394531 C 223.761719 468.6875 231.058594 474.460938 243.378906 474.460938 C 258.132812 474.460938 268.507812 470.660156 274.773438 464.914062 C 281.085938 459.136719 283.066406 451.496094 281.128906 444.453125 L 274.664062 420.960938 C 278.21875 419.40625 283.085938 416.359375 287.300781 410.800781 C 292.269531 404.253906 296.230469 394.367188 296.230469 379.667969 C 296.230469 362.679688 291.5 349.304688 283.769531 340.140625 Z M 283.769531 340.140625 " fill-opacity="1" fill-rule="evenodd"/><path fill="#e05d38" d="M 327.15625 394.644531 C 344.363281 412.585938 342.050781 456.753906 339.410156 470.214844 C 307.058594 446.21875 286.847656 440.863281 278.921875 441.984375 L 271.6875 418.191406 C 284.144531 414.828125 292.066406 403.617188 293.199219 377.820312 C 294.105469 357.1875 283.765625 343.058594 278.484375 338.574219 C 260.371094 337.449219 251.316406 359.878906 245.65625 368.851562 C 241.128906 376.027344 237.734375 374.835938 236.601562 373.335938 C 230.941406 359.878906 220.753906 358.757812 218.488281 373.335938 C 216.679688 384.996094 225.28125 390.90625 229.8125 392.402344 L 218.429688 441.984375 C 193.109375 443.398438 163.566406 457.507812 155.125 463.152344 C 151.730469 427.269531 184.535156 400.25 193.585938 377.820312 C 202.644531 355.394531 190.191406 344.179688 199.246094 329.601562 C 205.960938 318.800781 218.488281 317.265625 226.410156 315.027344 C 234.339844 312.785156 238.867188 303.8125 247.921875 299.324219 C 263.765625 293.71875 278.859375 307.546875 283.011719 317.265625 C 285.652344 316.890625 293.199219 317.9375 302.253906 325.117188 C 328.289062 343.058594 305.648438 372.214844 327.15625 394.644531 Z M 327.15625 394.644531 " fill-opacity="1" fill-rule="nonzero"/><path fill="#e05d38" d="M 249.285156 418.339844 C 262.777344 421.5 270.648438 420.3125 272.894531 419.324219 L 276.269531 430.183594 C 261.878906 431.761719 252.285156 422.945312 249.285156 418.339844 Z M 249.285156 418.339844 " fill-opacity="1" fill-rule="nonzero"/><path fill="#ffffff" d="M 246.261719 462.097656 C 268.964844 462.097656 279.625 448.109375 282.113281 441.117188 C 325.433594 441.117188 361.285156 471.089844 377.714844 492.074219 C 394.148438 513.050781 455.394531 623.949219 440.457031 668.910156 C 428.503906 704.882812 399.628906 710.375 383.691406 707.875 L 386.332031 755.554688 C 386.523438 758.964844 383.816406 761.828125 380.417969 761.828125 L 161.117188 761.828125 C 138.210938 763.324219 88.21875 763.921875 71.488281 754.332031 C 50.574219 742.34375 31.15625 680.898438 71.488281 559.511719 C 103.753906 462.398438 179.539062 440.117188 213.398438 441.117188 C 214.890625 448.109375 223.558594 462.097656 246.261719 462.097656 Z M 246.261719 462.097656 " fill-opacity="1" fill-rule="nonzero"/><path fill="#e05d38" d="M 69.613281 558.886719 C 102.195312 460.828125 178.855469 438.117188 213.457031 439.136719 L 215.003906 439.183594 L 215.328125 440.703125 C 216.644531 446.84375 224.550781 460.121094 246.265625 460.121094 C 268.042969 460.121094 278.011719 446.746094 280.253906 440.453125 L 280.722656 439.136719 L 282.113281 439.136719 C 326.296875 439.136719 362.660156 469.636719 379.269531 490.847656 C 387.628906 501.523438 407.128906 534.664062 422.660156 570.714844 C 430.4375 588.757812 437.253906 607.617188 441.191406 624.820312 C 445.109375 641.957031 446.238281 657.761719 442.332031 669.535156 C 436.199219 687.984375 425.660156 698.773438 414.476562 704.578125 C 404.382812 709.816406 393.871094 710.949219 385.792969 710.140625 L 388.304688 755.445312 C 388.558594 759.988281 384.953125 763.808594 380.421875 763.808594 L 161.183594 763.808594 C 149.667969 764.558594 131.398438 765.082031 113.890625 764.214844 C 105.117188 763.785156 96.5 763.003906 88.996094 761.714844 C 81.539062 760.433594 75.003906 758.628906 70.507812 756.054688 C 64.789062 752.773438 59.421875 746.277344 55.191406 736.707031 C 50.945312 727.113281 47.777344 714.28125 46.554688 698.101562 C 44.097656 665.730469 49.394531 619.75 69.613281 558.886719 Z M 211.871094 443.070312 C 178.0625 442.769531 104.851562 465.363281 73.363281 560.136719 C 53.253906 620.664062 48.085938 666.101562 50.488281 697.800781 C 51.691406 713.648438 54.78125 726.011719 58.800781 735.105469 C 62.832031 744.21875 67.730469 749.898438 72.46875 752.613281 C 76.339844 754.835938 82.324219 756.554688 89.664062 757.808594 C 96.953125 759.0625 105.402344 759.832031 114.082031 760.261719 C 131.445312 761.117188 149.59375 760.597656 160.988281 759.847656 L 380.421875 759.847656 C 382.6875 759.847656 384.488281 757.9375 384.359375 755.667969 L 381.585938 705.539062 L 383.996094 705.917969 C 391.609375 707.113281 402.378906 706.398438 412.660156 701.058594 C 422.886719 695.75 432.765625 685.800781 438.585938 668.285156 C 442.140625 657.582031 441.21875 642.664062 437.339844 625.707031 C 433.480469 608.824219 426.761719 590.207031 419.039062 572.289062 C 403.574219 536.398438 384.234375 503.601562 376.164062 493.296875 C 360.082031 472.757812 325.308594 443.714844 283.441406 443.109375 C 279.953125 451.035156 268.597656 464.078125 246.265625 464.078125 C 224.039062 464.078125 214.371094 451.152344 211.871094 443.070312 Z M 211.871094 443.070312 " fill-opacity="1" fill-rule="evenodd"/><path fill="#e05d38" d="M 137.480469 761.917969 C 101.46875 717.882812 63.390625 702.171875 48.859375 699.816406 C 48.859375 713.933594 55.890625 740.75 68.550781 753.445312 C 78.675781 763.609375 118.722656 763.328125 137.480469 761.917969 Z M 137.480469 761.917969 " fill-opacity="1" fill-rule="nonzero"/><path fill="#e05d38" d="M 416.015625 702.640625 C 439.652344 693.609375 443.679688 661.242188 442.746094 646.191406 C 421.363281 656.347656 392.570312 690.882812 380.847656 706.875 C 382.722656 709.226562 392.386719 711.675781 416.015625 702.640625 Z M 416.015625 702.640625 " fill-opacity="1" fill-rule="nonzero"/><path fill="#e05d38" d="M 243.277344 599.976562 C 232.820312 604.472656 155.140625 640.9375 119.289062 658.421875 C 123.773438 650.933594 141.699219 638.9375 146.179688 634.445312 C 150.664062 629.949219 167.09375 577.496094 167.09375 584.988281 C 167.09375 592.484375 158.128906 626.949219 162.613281 626.949219 C 167.09375 626.949219 229.835938 599.976562 243.277344 599.976562 Z M 243.277344 599.976562 " fill-opacity="1" fill-rule="nonzero"/><path fill="#e05d38" d="M 274.648438 643.4375 C 211.308594 728.558594 159.625 758.832031 141.699219 763.324219 L 173.066406 763.324219 C 226.84375 721.363281 263.195312 665.914062 274.648438 643.4375 Z M 274.648438 643.4375 " fill-opacity="1" fill-rule="nonzero"/><path fill="#e05d38" d="M 352.324219 628.449219 C 354.710938 657.226562 375.226562 693.390625 385.1875 707.875 L 385.1875 721.363281 C 362.480469 696.1875 353.816406 648.933594 352.324219 628.449219 Z M 352.324219 628.449219 " fill-opacity="1" fill-rule="nonzero"/><path fill="#e05d38" d="M 380.707031 587.988281 C 389.070312 592.785156 404.105469 603.972656 410.582031 608.964844 L 386.679688 580.496094 C 385.488281 585.289062 382.199219 587.484375 380.707031 587.988281 Z M 380.707031 587.988281 " fill-opacity="1" fill-rule="nonzero"/><path fill="#ffffff" d="M 292.398438 532.691406 L 280.890625 645.316406 C 280.753906 646.625 281.90625 647.699219 283.199219 647.46875 L 337.484375 637.691406 C 338.316406 637.542969 338.960938 636.875 339.085938 636.035156 L 354.949219 528.984375 C 355.132812 527.730469 354.117188 526.625 352.855469 526.71875 L 294.226562 530.917969 C 293.269531 530.984375 292.5 531.734375 292.398438 532.691406 Z M 292.398438 532.691406 " fill-opacity="1" fill-rule="nonzero"/><path fill="#e05d38" d="M 352.714844 524.738281 C 355.234375 524.5625 357.273438 526.765625 356.90625 529.277344 L 341.042969 636.328125 C 340.792969 638.007812 339.503906 639.34375 337.832031 639.644531 L 283.550781 649.414062 C 280.96875 649.882812 278.65625 647.734375 278.921875 645.113281 L 290.4375 532.488281 C 290.636719 530.578125 292.171875 529.078125 294.085938 528.941406 Z M 353 528.695312 L 294.367188 532.894531 L 282.855469 645.519531 L 337.132812 635.742188 Z M 353 528.695312 " fill-opacity="1" fill-rule="evenodd"/><path fill="#ffffff" d="M 370.25 587.988281 L 352.324219 614.960938 C 328.417969 616.460938 323.941406 602.972656 328.417969 581.992188 C 332.007812 565.207031 345.351562 565.007812 350.828125 567.003906 L 353.816406 555.015625 C 370.25 568.503906 370.25 581.492188 370.25 587.988281 Z M 370.25 587.988281 " fill-opacity="1" fill-rule="nonzero"/><path fill="#e05d38" d="M 352.65625 551.503906 L 355.066406 553.484375 C 363.539062 560.4375 367.867188 567.347656 370.054688 573.457031 C 372.222656 579.527344 372.222656 584.675781 372.222656 587.957031 L 372.222656 588.585938 L 353.421875 616.875 L 352.445312 616.9375 C 340.1875 617.710938 332.152344 614.667969 328.042969 607.941406 C 324.074219 601.433594 324.234375 592.144531 326.492188 581.578125 C 328.402344 572.625 333.023438 567.808594 338.148438 565.628906 C 342.148438 563.933594 346.300781 563.90625 349.40625 564.554688 Z M 354.957031 558.613281 L 352.214844 569.617188 L 350.15625 568.867188 C 347.8125 568.011719 343.628906 567.601562 339.6875 569.28125 C 335.875 570.898438 332.023438 574.574219 330.351562 582.40625 C 328.128906 592.820312 328.292969 600.765625 331.414062 605.871094 C 334.316406 610.621094 340.214844 613.546875 351.226562 613.035156 L 368.269531 587.386719 C 368.265625 584.214844 368.152344 579.867188 366.335938 574.792969 C 364.617188 569.980469 361.324219 564.410156 354.957031 558.613281 Z M 354.957031 558.613281 " fill-opacity="1" fill-rule="evenodd"/><path fill="#ffffff" d="M 265.683594 584.988281 C 262.097656 594.578125 255.226562 600.972656 252.238281 602.972656 L 271.65625 632.945312 C 277.628906 626.949219 285.097656 626.949219 301.535156 619.457031 C 317.964844 611.964844 322.445312 584.988281 317.964844 570.003906 C 314.378906 558.011719 293.566406 567.003906 285.097656 573 L 286.59375 556.515625 C 276.136719 561.011719 270.164062 573 265.683594 584.988281 Z M 265.683594 584.988281 " fill-opacity="1" fill-rule="nonzero"/><path fill="#e05d38" d="M 288.859375 553.386719 L 287.429688 569.160156 C 291.789062 566.613281 297.523438 564.03125 302.933594 562.824219 C 306.429688 562.046875 310.007812 561.785156 313.050781 562.667969 C 316.238281 563.585938 318.75 565.742188 319.855469 569.433594 C 322.21875 577.339844 322.191406 588.210938 319.496094 598.066406 C 316.804688 607.886719 311.328125 617.167969 302.347656 621.261719 C 295.675781 624.304688 290.429688 626.136719 286.242188 627.605469 C 285.210938 627.964844 284.246094 628.300781 283.339844 628.625 C 278.722656 630.296875 275.714844 631.675781 273.054688 634.34375 L 271.332031 636.074219 L 249.519531 602.410156 L 251.144531 601.324219 C 253.847656 599.515625 260.417969 593.433594 263.832031 584.292969 C 266.089844 578.25 268.769531 572.089844 272.253906 566.84375 C 275.742188 561.59375 280.117188 557.144531 285.816406 554.695312 Z M 275.542969 569.039062 C 272.304688 573.910156 269.753906 579.742188 267.53125 585.683594 C 264.296875 594.332031 258.53125 600.507812 254.902344 603.449219 L 272.058594 629.933594 C 274.917969 627.644531 278.125 626.304688 282.003906 624.902344 C 282.953125 624.558594 283.941406 624.210938 284.988281 623.84375 C 289.175781 622.382812 294.222656 620.617188 300.714844 617.65625 C 308.171875 614.257812 313.148438 606.300781 315.683594 597.019531 C 318.21875 587.761719 318.191406 577.65625 316.074219 570.574219 C 315.382812 568.269531 313.953125 567.050781 311.960938 566.472656 C 309.832031 565.855469 307.003906 565.972656 303.792969 566.691406 C 297.390625 568.121094 290.308594 571.738281 286.242188 574.621094 L 282.746094 577.089844 L 284.296875 559.972656 C 280.917969 562.140625 278.046875 565.269531 275.542969 569.039062 Z M 275.542969 569.039062 " fill-opacity="1" fill-rule="evenodd"/></svg>