<svg xmlns="http://www.w3.org/2000/svg" xmlns:xlink="http://www.w3.org/1999/xlink" width="1024" zoomAndPan="magnify" viewBox="0 0 768 767.999994" height="1024" preserveAspectRatio="xMidYMid meet" version="1.0"><defs><clipPath id="112c5244c0"><path d="M 5.761719 0.414062 L 668.417969 0.414062 L 668.417969 767.546875 L 5.761719 767.546875 Z M 5.761719 0.414062 " clip-rule="nonzero"/></clipPath><clipPath id="f87e4df173"><path d="M 218.128906 65.625 L 767.761719 65.625 L 767.761719 702.726562 L 218.128906 702.726562 Z M 218.128906 65.625 " clip-rule="nonzero"/></clipPath></defs><rect x="-76.8" width="921.6" fill="#ffffff" y="-76.799999" height="921.599993" fill-opacity="1"/><rect x="-76.8" width="921.6" fill="#e05d38" y="-76.799999" height="921.599993" fill-opacity="1"/><g clip-path="url(#112c5244c0)"><path fill="#ffffff" d="M 433.585938 724.332031 C 229.085938 724.332031 63.304688 571.953125 63.304688 383.980469 C 63.304688 196.011719 229.085938 43.632812 433.585938 43.632812 C 522.664062 43.632812 604.386719 72.542969 668.269531 120.710938 C 598.339844 46.644531 499.234375 0.410156 389.328125 0.410156 C 177.488281 0.410156 5.761719 172.140625 5.761719 383.980469 C 5.761719 595.820312 177.488281 767.546875 389.328125 767.546875 C 499.234375 767.546875 598.339844 721.320312 668.269531 647.25 C 604.386719 695.417969 522.664062 724.332031 433.585938 724.332031 " fill-opacity="1" fill-rule="nonzero"/></g><g clip-path="url(#f87e4df173)"><path fill="#fbd5c9" d="M 413.238281 666.230469 C 582.828125 666.230469 720.3125 539.867188 720.3125 383.980469 C 720.3125 228.097656 582.828125 101.730469 413.238281 101.730469 C 339.367188 101.730469 271.59375 125.707031 218.617188 165.652344 C 276.609375 104.226562 358.800781 65.890625 449.941406 65.890625 C 625.621094 65.890625 768.03125 208.304688 768.03125 383.980469 C 768.03125 559.65625 625.621094 702.074219 449.941406 702.074219 C 358.800781 702.074219 276.609375 663.734375 218.617188 602.308594 C 271.59375 642.253906 339.367188 666.230469 413.238281 666.230469 " fill-opacity="1" fill-rule="nonzero"/></g><path fill="#ffffff" d="M 457.890625 234.289062 L 457.890625 520.433594 C 480.894531 512.152344 502.695312 501.3125 522.632812 488.136719 L 522.632812 175.492188 Z M 237.941406 521.355469 C 258.761719 528.699219 280.453125 533.933594 302.679688 536.914062 L 302.679688 312.902344 L 237.941406 353.109375 Z M 347.914062 539.808594 C 369.769531 539.703125 391.5 537.429688 412.65625 533.109375 L 412.65625 246.871094 L 347.914062 296.011719 L 347.914062 539.808594 " fill-opacity="1" fill-rule="nonzero"/><path fill="#fbd5c9" d="M 683.53125 352.175781 L 585.050781 397.765625 L 609.902344 417.777344 C 590.121094 447.878906 562.890625 472.941406 531.109375 494.5 C 405.015625 580.027344 213.519531 569.863281 99.078125 439.492188 C 124.871094 477.542969 157.054688 509.609375 194.730469 534.8125 C 231.113281 559.144531 271.042969 576.066406 313.417969 585.113281 C 355.789062 594.15625 398.484375 594.867188 440.3125 587.226562 C 483.632812 579.308594 524.097656 562.75 560.59375 537.996094 C 595.722656 514.167969 625.164062 484.105469 648.171875 448.597656 L 672.242188 467.984375 L 683.53125 352.175781 " fill-opacity="1" fill-rule="nonzero"/></svg>